<svg width="21" height="21" viewBox="0 0 21 21" fill="none" xmlns="http://www.w3.org/2000/svg">
<path d="M20.6379 17.3793H0.362085C0.162134 17.3793 0 17.2172 0 17.0172V3.98275C0 3.7828 0.162134 3.62067 0.362085 3.62067H20.6379C20.8379 3.62067 21 3.7828 21 3.98275V17.0172C21 17.2172 20.8378 17.3793 20.6379 17.3793Z" fill="#41479B"/>
<path d="M10.6481 5.19608L10.7932 5.63137L11.2521 5.63494C11.3115 5.63539 11.3361 5.71119 11.2883 5.7465L10.9192 6.01909L11.0576 6.45656C11.0755 6.51317 11.011 6.56009 10.9627 6.52551L10.5894 6.25866L10.2161 6.52551C10.1678 6.56005 10.1033 6.51321 10.1212 6.45656L10.2596 6.01909L9.89045 5.7465C9.84267 5.71119 9.86728 5.63539 9.92671 5.63494L10.3856 5.63137L10.5307 5.19608C10.5495 5.13972 10.6293 5.13972 10.6481 5.19608Z" fill="#FFE15A"/>
<path d="M10.6481 14.5423L10.7932 14.9776L11.2521 14.9811C11.3115 14.9816 11.3361 15.0574 11.2883 15.0927L10.9192 15.3653L11.0576 15.8028C11.0755 15.8594 11.011 15.9063 10.9627 15.8717L10.5894 15.6049L10.2161 15.8717C10.1678 15.9062 10.1033 15.8594 10.1212 15.8028L10.2596 15.3653L9.89045 15.0927C9.84267 15.0574 9.86728 14.9816 9.92671 14.9811L10.3856 14.9776L10.5307 14.5423C10.5495 14.4859 10.6293 14.4859 10.6481 14.5423Z" fill="#FFE15A"/>
<path d="M15.3199 9.86893L15.4651 10.3042L15.924 10.3078C15.9834 10.3082 16.008 10.384 15.9602 10.4194L15.5911 10.6919L15.7295 11.1294C15.7474 11.186 15.6829 11.2329 15.6346 11.1984L15.2613 10.9315L14.888 11.1984C14.8397 11.2329 14.7752 11.1861 14.7931 11.1294L14.9315 10.6919L14.5623 10.4194C14.5145 10.384 14.5392 10.3082 14.5986 10.3078L15.0574 10.3042L15.2026 9.86893C15.2214 9.81257 15.3011 9.81257 15.3199 9.86893Z" fill="#FFE15A"/>
<path d="M5.97422 9.86893L6.11942 10.3042L6.57826 10.3078C6.63769 10.3082 6.6623 10.384 6.61451 10.4194L6.24537 10.6919L6.38376 11.1294C6.40168 11.186 6.33721 11.2329 6.28885 11.1984L5.91557 10.9315L5.54229 11.1984C5.49397 11.2329 5.42945 11.1861 5.44738 11.1294L5.58576 10.6919L5.21662 10.4194C5.16884 10.384 5.19345 10.3082 5.25288 10.3078L5.71172 10.3042L5.85692 9.86893C5.8757 9.81257 5.95548 9.81257 5.97422 9.86893Z" fill="#FFE15A"/>
<path d="M6.67539 7.42874L6.82059 7.86404L7.27943 7.86761C7.33886 7.86806 7.36347 7.94386 7.31569 7.97917L6.94655 8.25176L7.08493 8.68923C7.10286 8.74583 7.03838 8.79275 6.99002 8.75818L6.61674 8.49133L6.24346 8.75818C6.19514 8.79271 6.13062 8.74587 6.14855 8.68923L6.28693 8.25176L5.91779 7.97917C5.87001 7.94386 5.89462 7.86806 5.95405 7.86761L6.41289 7.86404L6.55809 7.42874C6.57687 7.37239 6.65657 7.37239 6.67539 7.42874Z" fill="#FFE15A"/>
<path d="M14.7691 12.1016L14.9143 12.5369L15.3732 12.5405C15.4326 12.5409 15.4572 12.6167 15.4094 12.652L15.0403 12.9246L15.1787 13.3621C15.1966 13.4187 15.1321 13.4656 15.0838 13.431L14.7105 13.1642L14.3372 13.431C14.2889 13.4656 14.2244 13.4187 14.2423 13.3621L14.3807 12.9246L14.0115 12.652C13.9638 12.6167 13.9884 12.5409 14.0478 12.5405L14.5066 12.5369L14.6518 12.1016C14.6706 12.0452 14.7504 12.0452 14.7691 12.1016Z" fill="#FFE15A"/>
<path d="M13.0582 5.71829L13.2034 6.15359L13.6622 6.15716C13.7217 6.15761 13.7463 6.23341 13.6985 6.26872L13.3294 6.54131L13.4677 6.97878C13.4857 7.03538 13.4212 7.0823 13.3728 7.04773L12.9996 6.78088L12.6263 7.04773C12.578 7.08226 12.5134 7.03542 12.5314 6.97878L12.6697 6.54131L12.3006 6.26872C12.2528 6.23341 12.2774 6.15761 12.3369 6.15716L12.7957 6.15359L12.9409 5.71829C12.9596 5.66194 13.0393 5.66194 13.0582 5.71829Z" fill="#FFE15A"/>
<path d="M8.38633 13.8123L8.53152 14.2476L8.99037 14.2512C9.0498 14.2516 9.07441 14.3274 9.02662 14.3627L8.65748 14.6353L8.79587 15.0728C8.81379 15.1294 8.74932 15.1763 8.70096 15.1417L8.32768 14.8749L7.95439 15.1417C7.90608 15.1763 7.84156 15.1294 7.85948 15.0728L7.99787 14.6353L7.62873 14.3627C7.58095 14.3274 7.60556 14.2516 7.66499 14.2512L8.12383 14.2476L8.26902 13.8123C8.28781 13.7559 8.3675 13.7559 8.38633 13.8123Z" fill="#FFE15A"/>
<path d="M14.6518 7.42874L14.5066 7.86404L14.0478 7.86761C13.9884 7.86806 13.9638 7.94386 14.0115 7.97917L14.3807 8.25176L14.2423 8.68923C14.2244 8.74583 14.2888 8.79275 14.3372 8.75818L14.7105 8.49133L15.0838 8.75818C15.1321 8.79271 15.1966 8.74587 15.1787 8.68923L15.0403 8.25176L15.4094 7.97917C15.4572 7.94386 15.4326 7.86806 15.3732 7.86761L14.9143 7.86404L14.7691 7.42874C14.7504 7.37239 14.6706 7.37239 14.6518 7.42874Z" fill="#FFE15A"/>
<path d="M6.55809 12.1016L6.41289 12.5369L5.95405 12.5405C5.89462 12.5409 5.87001 12.6167 5.91779 12.652L6.28693 12.9246L6.14855 13.3621C6.13062 13.4187 6.1951 13.4656 6.24346 13.431L6.61674 13.1642L6.99002 13.431C7.03834 13.4656 7.10286 13.4187 7.08493 13.3621L6.94655 12.9246L7.31569 12.652C7.36347 12.6167 7.33886 12.5409 7.27943 12.5405L6.82059 12.5369L6.67539 12.1016C6.65657 12.0452 6.57687 12.0452 6.55809 12.1016Z" fill="#FFE15A"/>
<path d="M8.26902 5.71829L8.12383 6.15359L7.66499 6.15716C7.60556 6.15761 7.58095 6.23341 7.62873 6.26872L7.99787 6.54131L7.85948 6.97878C7.84156 7.03538 7.90604 7.0823 7.95439 7.04773L8.32768 6.78088L8.70096 7.04773C8.74928 7.08226 8.81379 7.03542 8.79587 6.97878L8.65748 6.54131L9.02662 6.26872C9.07441 6.23341 9.0498 6.15761 8.99037 6.15716L8.53152 6.15359L8.38633 5.71829C8.3675 5.66194 8.28781 5.66194 8.26902 5.71829Z" fill="#FFE15A"/>
<path d="M12.9409 13.8123L12.7957 14.2476L12.3369 14.2512C12.2774 14.2516 12.2528 14.3274 12.3006 14.3627L12.6697 14.6353L12.5314 15.0728C12.5134 15.1294 12.5779 15.1763 12.6263 15.1417L12.9996 14.8749L13.3728 15.1417C13.4211 15.1763 13.4857 15.1294 13.4677 15.0728L13.3294 14.6353L13.6985 14.3627C13.7463 14.3274 13.7217 14.2516 13.6622 14.2512L13.2034 14.2476L13.0582 13.8123C13.0394 13.7559 12.9597 13.7559 12.9409 13.8123Z" fill="#FFE15A"/>
</svg>
