<svg width="32" height="32" viewBox="0 0 32 32" fill="none" xmlns="http://www.w3.org/2000/svg">
<path d="M32 5.3335H0V26.6671H32V5.3335Z" fill="#F0F0F0"/>
<path d="M18 5.33301H14V13.9996H0V17.9996H14V26.6662H18V17.9996H32V13.9996H18V5.33301Z" fill="#D80027"/>
<path d="M7.69662 8.9709V7.57959H6.30538V8.9709H4.91406V10.3622H6.30538V11.7535H7.69662V10.3622H9.08794V8.9709H7.69662Z" fill="#D80027"/>
<path d="M25.6966 8.9709V7.57959H24.3054V8.9709H22.9141V10.3622H24.3054V11.7535H25.6966V10.3622H27.0879V8.9709H25.6966Z" fill="#D80027"/>
<path d="M7.69662 21.6374V20.2461H6.30538V21.6374H4.91406V23.0287H6.30538V24.42H7.69662V23.0287H9.08794V21.6374H7.69662Z" fill="#D80027"/>
<path d="M25.6966 21.6374V20.2461H24.3054V21.6374H22.9141V23.0287H24.3054V24.42H25.6966V23.0287H27.0879V21.6374H25.6966Z" fill="#D80027"/>
</svg>
