<svg width="21" height="21" viewBox="0 0 21 21" fill="none" xmlns="http://www.w3.org/2000/svg">
<path d="M19.4273 3.62067H1.57274C0.704115 3.62067 0 4.32478 0 5.19341V15.8066C0 16.6752 0.704115 17.3794 1.57274 17.3794H19.4273C20.2958 17.3794 21 16.6752 21 15.8066V5.19341C21 4.32478 20.2959 3.62067 19.4273 3.62067Z" fill="#FF4B55"/>
<path d="M10.3977 9.25924L10.9652 10.0017L11.8514 9.70504C11.9009 9.68843 11.9431 9.74449 11.9134 9.78748L11.3827 10.5566L11.9387 11.3078C11.9698 11.3498 11.9295 11.4072 11.8795 11.3923L10.9839 11.1252L10.4414 11.886C10.4111 11.9286 10.344 11.908 10.3427 11.8558L10.3199 10.9216L9.42867 10.6407C9.37884 10.625 9.37765 10.5549 9.42695 10.5375L10.3084 10.2272L10.3001 9.29275C10.2996 9.24049 10.366 9.21777 10.3977 9.25924Z" fill="#F5F5F5"/>
<path d="M7.25873 13.3981C5.65933 13.3981 4.36192 12.1007 4.36192 10.4998C4.36192 8.90193 5.65937 7.60157 7.25873 7.60157C7.85379 7.60157 8.40254 7.78459 8.8599 8.09434C8.92992 8.14175 9.00986 8.04975 8.95124 7.9888C8.2678 7.27821 7.30045 6.84471 6.22789 6.8813C4.38522 6.94417 2.85977 8.42156 2.74201 10.2615C2.60715 12.3691 4.27591 14.1206 6.3536 14.1206C7.37706 14.1206 8.29688 13.6927 8.95371 13.0086C9.01174 12.9481 8.93164 12.8575 8.86228 12.9045C8.40446 13.2149 7.85481 13.3981 7.25873 13.3981Z" fill="#F5F5F5"/>
</svg>
