<svg width="21" height="21" viewBox="0 0 21 21" fill="none" xmlns="http://www.w3.org/2000/svg">
<path d="M20.6379 17.3792H0.362085C0.162134 17.3792 0 17.2171 0 17.0171V3.98269C0 3.78274 0.162134 3.62061 0.362085 3.62061H20.6379C20.8379 3.62061 21 3.78274 21 3.98269V17.0171C21 17.2171 20.8378 17.3792 20.6379 17.3792Z" fill="#F5F5F5"/>
<path d="M21 4.67901H0V3.98269C0 3.78274 0.162134 3.62061 0.362085 3.62061H20.6379C20.8379 3.62061 21 3.78274 21 3.98269L21 4.67901Z" fill="#FF4B55"/>
<path d="M21 7.85376H0V8.91212H21V7.85376Z" fill="#FF4B55"/>
<path d="M21 5.73706H0V6.79543H21V5.73706Z" fill="#FF4B55"/>
<path d="M21 11.0291H0.362085C0.162134 11.0291 0 10.867 0 10.667V9.9707H21V11.0291Z" fill="#FF4B55"/>
<path d="M21 14.2046H0V15.263H21V14.2046Z" fill="#FF4B55"/>
<path d="M20.6379 17.379H0.362085C0.162134 17.379 0 17.2169 0 17.017V16.3207H21V17.017C21 17.217 20.8378 17.379 20.6379 17.379Z" fill="#FF4B55"/>
<path d="M21 12.0879H0V13.1463H21V12.0879Z" fill="#FF4B55"/>
<path d="M9.41376 3.62061H0.362085C0.162134 3.62061 0 3.7827 0 3.98265V10.6669C0 10.8669 0.162134 11.029 0.362085 11.029H9.41381C9.61376 11.029 9.77589 10.8669 9.77589 10.6669V3.98265C9.77585 3.7827 9.61372 3.62061 9.41376 3.62061Z" fill="#41479B"/>
<path d="M1.01614 4.45181L1.09628 4.69216L1.34964 4.69409C1.38245 4.69438 1.39602 4.73621 1.36965 4.75569L1.16585 4.90622L1.2423 5.14776C1.25222 5.17901 1.21658 5.20494 1.18988 5.18582L0.983778 5.03854L0.777675 5.18586C0.750973 5.20494 0.715413 5.17906 0.725257 5.1478L0.80171 4.90626L0.597903 4.75573C0.57153 4.73621 0.585107 4.69442 0.617919 4.69413L0.871272 4.6922L0.951416 4.45185C0.961752 4.42068 1.00572 4.42068 1.01614 4.45181Z" fill="#F5F5F5"/>
<path d="M1.01614 5.7091L1.09628 5.94945L1.34964 5.95138C1.38245 5.95167 1.39602 5.9935 1.36965 6.01299L1.16585 6.16351L1.2423 6.40505C1.25222 6.43631 1.21658 6.46223 1.18988 6.44312L0.983778 6.29583L0.777675 6.44316C0.750973 6.46223 0.715413 6.43635 0.725257 6.40509L0.80171 6.16355L0.597903 6.01303C0.57153 5.9935 0.585107 5.95171 0.617919 5.95142L0.871272 5.94949L0.951416 5.70914C0.961752 5.67801 1.00572 5.67801 1.01614 5.7091Z" fill="#F5F5F5"/>
<path d="M1.01614 6.96667L1.09628 7.20702L1.34964 7.20895C1.38245 7.20924 1.39602 7.25108 1.36965 7.27056L1.16585 7.42109L1.2423 7.66263C1.25222 7.69388 1.21658 7.7198 1.18988 7.70069L0.983778 7.5534L0.777675 7.70073C0.750973 7.7198 0.715413 7.69392 0.725257 7.66267L0.80171 7.42113L0.597903 7.2706C0.57153 7.25108 0.585107 7.20928 0.617919 7.20899L0.871272 7.20707L0.951416 6.96671C0.961752 6.93558 1.00572 6.93558 1.01614 6.96667Z" fill="#F5F5F5"/>
<path d="M1.01614 8.22354L1.09628 8.46389L1.34964 8.46582C1.38245 8.4661 1.39602 8.50794 1.36965 8.52742L1.16585 8.67795L1.2423 8.91949C1.25222 8.95074 1.21658 8.97667 1.18988 8.95755L0.983778 8.81027L0.777675 8.95759C0.750973 8.97667 0.715413 8.95079 0.725257 8.91953L0.80171 8.67799L0.597903 8.52746C0.57153 8.50794 0.585107 8.46615 0.617919 8.46586L0.871272 8.46393L0.951416 8.22358C0.961752 8.19241 1.00572 8.19241 1.01614 8.22354Z" fill="#F5F5F5"/>
<path d="M1.01614 9.48114L1.09628 9.72149L1.34964 9.72342C1.38245 9.72371 1.39602 9.76554 1.36965 9.78502L1.16585 9.93555L1.2423 10.1771C1.25222 10.2084 1.21658 10.2343 1.18988 10.2152L0.983778 10.0679L0.777675 10.2152C0.750973 10.2343 0.715413 10.2084 0.725257 10.1771L0.80171 9.93559L0.597903 9.78507C0.57153 9.76554 0.585107 9.72375 0.617919 9.72346L0.871272 9.72153L0.951416 9.48118C0.961752 9.44997 1.00572 9.44997 1.01614 9.48114Z" fill="#F5F5F5"/>
<path d="M1.99075 5.06824L2.07089 5.30859L2.32424 5.31052C2.35706 5.3108 2.37063 5.35264 2.34426 5.37212L2.14045 5.52265L2.21691 5.76419C2.22683 5.79544 2.19119 5.82137 2.16449 5.80225L1.95839 5.65493L1.75228 5.80225C1.72558 5.82133 1.69002 5.79544 1.69987 5.76419L1.77632 5.52265L1.57251 5.37212C1.54614 5.3526 1.55972 5.3108 1.59253 5.31052L1.84588 5.30859L1.92603 5.06824C1.93632 5.03715 1.98037 5.03715 1.99075 5.06824Z" fill="#F5F5F5"/>
<path d="M1.9927 6.32559L2.07285 6.56594L2.3262 6.56787C2.35901 6.56816 2.37259 6.60999 2.34621 6.62948L2.14241 6.78L2.21886 7.02154C2.22879 7.05279 2.19314 7.07871 2.16644 7.0596L1.96034 6.91227L1.75424 7.0596C1.72754 7.07867 1.69198 7.05283 1.70182 7.02154L1.77827 6.78L1.57447 6.62948C1.54809 6.60995 1.56167 6.56816 1.59448 6.56787L1.84783 6.56594L1.92798 6.32559C1.93827 6.29446 1.98232 6.29446 1.9927 6.32559Z" fill="#F5F5F5"/>
<path d="M1.9927 7.58267L2.07285 7.82302L2.3262 7.82495C2.35901 7.82524 2.37259 7.86708 2.34621 7.88656L2.14241 8.03709L2.21886 8.27863C2.22879 8.30988 2.19314 8.3358 2.16644 8.31669L1.96034 8.16936L1.75424 8.31669C1.72754 8.33576 1.69198 8.30988 1.70182 8.27863L1.77827 8.03709L1.57447 7.88656C1.54809 7.86703 1.56167 7.82524 1.59448 7.82495L1.84783 7.82302L1.92798 7.58267C1.93827 7.55154 1.98232 7.55154 1.9927 7.58267Z" fill="#F5F5F5"/>
<path d="M1.99075 8.84021L2.07089 9.08056L2.32424 9.08249C2.35706 9.08278 2.37063 9.12461 2.34426 9.1441L2.14045 9.29462L2.21691 9.53616C2.22683 9.56742 2.19119 9.59334 2.16449 9.57423L1.95839 9.4269L1.75228 9.57423C1.72558 9.5933 1.69002 9.56742 1.69987 9.53616L1.77632 9.29462L1.57251 9.1441C1.54614 9.12457 1.55972 9.08278 1.59253 9.08249L1.84588 9.08056L1.92603 8.84021C1.93632 8.80912 1.98037 8.80912 1.99075 8.84021Z" fill="#F5F5F5"/>
<path d="M2.96731 4.45181L3.04746 4.69216L3.30081 4.69409C3.33362 4.69438 3.3472 4.73622 3.32082 4.7557L3.11702 4.90622L3.19347 5.14776C3.2034 5.17902 3.16775 5.20494 3.14105 5.18583L2.93495 5.0385L2.72885 5.18583C2.70215 5.2049 2.66658 5.17902 2.67643 5.14776L2.75288 4.90622L2.54908 4.7557C2.5227 4.73617 2.53628 4.69438 2.56909 4.69409L2.82244 4.69216L2.90259 4.45181C2.91292 4.42068 2.95693 4.42068 2.96731 4.45181Z" fill="#F5F5F5"/>
<path d="M2.96731 5.70911L3.04746 5.94946L3.30081 5.95139C3.33362 5.95167 3.3472 5.99351 3.32082 6.01299L3.11702 6.16352L3.19347 6.40506C3.2034 6.43631 3.16775 6.46224 3.14105 6.44312L2.93495 6.29579L2.72885 6.44312C2.70215 6.46219 2.66658 6.43631 2.67643 6.40506L2.75288 6.16352L2.54908 6.01299C2.5227 5.99347 2.53628 5.95167 2.56909 5.95139L2.82244 5.94946L2.90259 5.70911C2.91292 5.67802 2.95693 5.67802 2.96731 5.70911Z" fill="#F5F5F5"/>
<path d="M2.96731 6.96668L3.04746 7.20703L3.30081 7.20896C3.33362 7.20925 3.3472 7.25108 3.32082 7.27057L3.11702 7.42109L3.19347 7.66264C3.2034 7.69389 3.16775 7.71981 3.14105 7.7007L2.93495 7.55337L2.72885 7.7007C2.70215 7.71977 2.66658 7.69389 2.67643 7.66264L2.75288 7.42109L2.54908 7.27057C2.5227 7.25104 2.53628 7.20925 2.56909 7.20896L2.82244 7.20703L2.90259 6.96668C2.91292 6.93559 2.95693 6.93559 2.96731 6.96668Z" fill="#F5F5F5"/>
<path d="M2.96731 8.22354L3.04746 8.46389L3.30081 8.46582C3.33362 8.46611 3.3472 8.50795 3.32082 8.52743L3.11702 8.67795L3.19347 8.91949C3.2034 8.95075 3.16775 8.97667 3.14105 8.95756L2.93495 8.81023L2.72885 8.95756C2.70215 8.97663 2.66658 8.95075 2.67643 8.91949L2.75288 8.67795L2.54908 8.52743C2.5227 8.5079 2.53628 8.46611 2.56909 8.46582L2.82244 8.46389L2.90259 8.22354C2.91292 8.19241 2.95693 8.19241 2.96731 8.22354Z" fill="#F5F5F5"/>
<path d="M2.96731 9.48114L3.04746 9.72149L3.30081 9.72342C3.33362 9.72371 3.3472 9.76555 3.32082 9.78503L3.11702 9.93556L3.19347 10.1771C3.2034 10.2084 3.16775 10.2343 3.14105 10.2152L2.93495 10.0678L2.72885 10.2152C2.70215 10.2342 2.66658 10.2084 2.67643 10.1771L2.75288 9.93556L2.54908 9.78503C2.5227 9.7655 2.53628 9.72371 2.56909 9.72342L2.82244 9.72149L2.90259 9.48114C2.91292 9.44997 2.95693 9.44997 2.96731 9.48114Z" fill="#F5F5F5"/>
<path d="M3.94387 5.06824L4.02402 5.30859L4.27737 5.31052C4.31018 5.3108 4.32376 5.35264 4.29739 5.37212L4.09358 5.52265L4.17003 5.76419C4.17996 5.79544 4.14432 5.82137 4.11762 5.80225L3.91151 5.65493L3.70541 5.80225C3.67871 5.82133 3.64315 5.79544 3.65299 5.76419L3.72944 5.52265L3.52564 5.37212C3.49926 5.3526 3.51284 5.3108 3.54565 5.31052L3.79901 5.30859L3.87915 5.06824C3.88945 5.03715 3.9335 5.03715 3.94387 5.06824Z" fill="#F5F5F5"/>
<path d="M3.94387 6.32559L4.02402 6.56594L4.27737 6.56787C4.31018 6.56816 4.32376 6.60999 4.29739 6.62948L4.09358 6.78L4.17003 7.02154C4.17996 7.05279 4.14432 7.07871 4.11762 7.0596L3.91151 6.91227L3.70541 7.0596C3.67871 7.07867 3.64315 7.05283 3.65299 7.02154L3.72944 6.78L3.52564 6.62948C3.49926 6.60995 3.51284 6.56816 3.54565 6.56787L3.79901 6.56594L3.87915 6.32559C3.88945 6.29446 3.9335 6.29446 3.94387 6.32559Z" fill="#F5F5F5"/>
<path d="M3.94387 7.58267L4.02402 7.82302L4.27737 7.82495C4.31018 7.82524 4.32376 7.86708 4.29739 7.88656L4.09358 8.03709L4.17003 8.27863C4.17996 8.30988 4.14432 8.3358 4.11762 8.31669L3.91151 8.16936L3.70541 8.31669C3.67871 8.33576 3.64315 8.30988 3.65299 8.27863L3.72944 8.03709L3.52564 7.88656C3.49926 7.86703 3.51284 7.82524 3.54565 7.82495L3.79901 7.82302L3.87915 7.58267C3.88945 7.55154 3.9335 7.55154 3.94387 7.58267Z" fill="#F5F5F5"/>
<path d="M3.94387 8.84021L4.02402 9.08056L4.27737 9.08249C4.31018 9.08278 4.32376 9.12461 4.29739 9.1441L4.09358 9.29462L4.17003 9.53616C4.17996 9.56742 4.14432 9.59334 4.11762 9.57423L3.91151 9.4269L3.70541 9.57423C3.67871 9.5933 3.64315 9.56742 3.65299 9.53616L3.72944 9.29462L3.52564 9.1441C3.49926 9.12457 3.51284 9.08278 3.54565 9.08249L3.79901 9.08056L3.87915 8.84021C3.88945 8.80912 3.9335 8.80912 3.94387 8.84021Z" fill="#F5F5F5"/>
<path d="M4.92047 4.45181L5.00062 4.69216L5.25397 4.69409C5.28678 4.69438 5.30036 4.73622 5.27399 4.7557L5.07018 4.90622L5.14663 5.14776C5.15656 5.17902 5.12092 5.20494 5.09422 5.18583L4.88807 5.0385L4.68197 5.18583C4.65527 5.2049 4.61971 5.17902 4.62955 5.14776L4.70601 4.90622L4.5022 4.7557C4.47583 4.73617 4.4894 4.69438 4.52222 4.69409L4.77557 4.69216L4.85571 4.45181C4.86609 4.42068 4.9101 4.42068 4.92047 4.45181Z" fill="#F5F5F5"/>
<path d="M4.92047 5.70911L5.00062 5.94946L5.25397 5.95139C5.28678 5.95167 5.30036 5.99351 5.27399 6.01299L5.07018 6.16352L5.14663 6.40506C5.15656 6.43631 5.12092 6.46224 5.09422 6.44312L4.88807 6.29579L4.68197 6.44312C4.65527 6.46219 4.61971 6.43631 4.62955 6.40506L4.70601 6.16352L4.5022 6.01299C4.47583 5.99347 4.4894 5.95167 4.52222 5.95139L4.77557 5.94946L4.85571 5.70911C4.86609 5.67802 4.9101 5.67802 4.92047 5.70911Z" fill="#F5F5F5"/>
<path d="M4.92047 6.96668L5.00062 7.20703L5.25397 7.20896C5.28678 7.20925 5.30036 7.25108 5.27399 7.27057L5.07018 7.42109L5.14663 7.66264C5.15656 7.69389 5.12092 7.71981 5.09422 7.7007L4.88807 7.55337L4.68197 7.7007C4.65527 7.71977 4.61971 7.69389 4.62955 7.66264L4.70601 7.42109L4.5022 7.27057C4.47583 7.25104 4.4894 7.20925 4.52222 7.20896L4.77557 7.20703L4.85571 6.96668C4.86609 6.93559 4.9101 6.93559 4.92047 6.96668Z" fill="#F5F5F5"/>
<path d="M4.92047 8.22354L5.00062 8.46389L5.25397 8.46582C5.28678 8.46611 5.30036 8.50795 5.27399 8.52743L5.07018 8.67795L5.14663 8.91949C5.15656 8.95075 5.12092 8.97667 5.09422 8.95756L4.88807 8.81023L4.68197 8.95756C4.65527 8.97663 4.61971 8.95075 4.62955 8.91949L4.70601 8.67795L4.5022 8.52743C4.47583 8.5079 4.4894 8.46611 4.52222 8.46582L4.77557 8.46389L4.85571 8.22354C4.86609 8.19241 4.9101 8.19241 4.92047 8.22354Z" fill="#F5F5F5"/>
<path d="M4.92047 9.4809L5.00062 9.72125L5.25397 9.72318C5.28678 9.72347 5.30036 9.7653 5.27399 9.78478L5.07018 9.93531L5.14663 10.1769C5.15656 10.2081 5.12092 10.234 5.09422 10.2149L4.88807 10.0676L4.68197 10.2149C4.65527 10.234 4.61971 10.2081 4.62955 10.1769L4.70601 9.93531L4.5022 9.78478C4.47583 9.76526 4.4894 9.72347 4.52222 9.72318L4.77557 9.72125L4.85571 9.4809C4.86609 9.44973 4.9101 9.44973 4.92047 9.4809Z" fill="#F5F5F5"/>
<path d="M5.89504 5.06824L5.97519 5.30859L6.22854 5.31052C6.26135 5.3108 6.27493 5.35264 6.24855 5.37212L6.04475 5.52265L6.1212 5.76419C6.13113 5.79544 6.09548 5.82137 6.06878 5.80225L5.86268 5.65493L5.65658 5.80225C5.62988 5.82133 5.59432 5.79544 5.60416 5.76419L5.68061 5.52265L5.47681 5.37212C5.45044 5.3526 5.46401 5.3108 5.49683 5.31052L5.75018 5.30859L5.83032 5.06824C5.8407 5.03715 5.88467 5.03715 5.89504 5.06824Z" fill="#F5F5F5"/>
<path d="M5.89504 6.32559L5.97519 6.56594L6.22854 6.56787C6.26135 6.56816 6.27493 6.60999 6.24855 6.62948L6.04475 6.78L6.1212 7.02154C6.13113 7.05279 6.09548 7.07871 6.06878 7.0596L5.86268 6.91227L5.65658 7.0596C5.62988 7.07867 5.59432 7.05283 5.60416 7.02154L5.68061 6.78L5.47681 6.62948C5.45044 6.60995 5.46401 6.56816 5.49683 6.56787L5.75018 6.56594L5.83032 6.32559C5.8407 6.29446 5.88467 6.29446 5.89504 6.32559Z" fill="#F5F5F5"/>
<path d="M5.89504 7.58267L5.97519 7.82302L6.22854 7.82495C6.26135 7.82524 6.27493 7.86708 6.24855 7.88656L6.04475 8.03709L6.1212 8.27863C6.13113 8.30988 6.09548 8.3358 6.06878 8.31669L5.86268 8.16936L5.65658 8.31669C5.62988 8.33576 5.59432 8.30988 5.60416 8.27863L5.68061 8.03709L5.47681 7.88656C5.45044 7.86703 5.46401 7.82524 5.49683 7.82495L5.75018 7.82302L5.83032 7.58267C5.8407 7.55154 5.88467 7.55154 5.89504 7.58267Z" fill="#F5F5F5"/>
<path d="M5.89504 8.84021L5.97519 9.08056L6.22854 9.08249C6.26135 9.08278 6.27493 9.12461 6.24855 9.1441L6.04475 9.29462L6.1212 9.53616C6.13113 9.56742 6.09548 9.59334 6.06878 9.57423L5.86268 9.4269L5.65658 9.57423C5.62988 9.5933 5.59432 9.56742 5.60416 9.53616L5.68061 9.29462L5.47681 9.1441C5.45044 9.12457 5.46401 9.08278 5.49683 9.08249L5.75018 9.08056L5.83032 8.84021C5.8407 8.80912 5.88467 8.80912 5.89504 8.84021Z" fill="#F5F5F5"/>
<path d="M6.87161 4.45181L6.95175 4.69216L7.2051 4.69409C7.23791 4.69438 7.25149 4.73622 7.22512 4.7557L7.02131 4.90622L7.09776 5.14776C7.10769 5.17902 7.07205 5.20494 7.04535 5.18583L6.83924 5.0385L6.63314 5.18583C6.60644 5.2049 6.57088 5.17902 6.58072 5.14776L6.65718 4.90622L6.45337 4.7557C6.427 4.73617 6.44058 4.69438 6.47339 4.69409L6.72674 4.69216L6.80688 4.45181C6.81718 4.42068 6.86123 4.42068 6.87161 4.45181Z" fill="#F5F5F5"/>
<path d="M6.87161 5.70911L6.95175 5.94946L7.2051 5.95139C7.23791 5.95167 7.25149 5.99351 7.22512 6.01299L7.02131 6.16352L7.09776 6.40506C7.10769 6.43631 7.07205 6.46224 7.04535 6.44312L6.83924 6.29579L6.63314 6.44312C6.60644 6.46219 6.57088 6.43631 6.58072 6.40506L6.65718 6.16352L6.45337 6.01299C6.427 5.99347 6.44058 5.95167 6.47339 5.95139L6.72674 5.94946L6.80688 5.70911C6.81718 5.67802 6.86123 5.67802 6.87161 5.70911Z" fill="#F5F5F5"/>
<path d="M6.87161 6.96668L6.95175 7.20703L7.2051 7.20896C7.23791 7.20925 7.25149 7.25108 7.22512 7.27057L7.02131 7.42109L7.09776 7.66264C7.10769 7.69389 7.07205 7.71981 7.04535 7.7007L6.83924 7.55337L6.63314 7.7007C6.60644 7.71977 6.57088 7.69389 6.58072 7.66264L6.65718 7.42109L6.45337 7.27057C6.427 7.25104 6.44058 7.20925 6.47339 7.20896L6.72674 7.20703L6.80688 6.96668C6.81718 6.93559 6.86123 6.93559 6.87161 6.96668Z" fill="#F5F5F5"/>
<path d="M6.87161 8.22354L6.95175 8.46389L7.2051 8.46582C7.23791 8.46611 7.25149 8.50795 7.22512 8.52743L7.02131 8.67795L7.09776 8.91949C7.10769 8.95075 7.07205 8.97667 7.04535 8.95756L6.83924 8.81023L6.63314 8.95756C6.60644 8.97663 6.57088 8.95075 6.58072 8.91949L6.65718 8.67795L6.45337 8.52743C6.427 8.5079 6.44058 8.46611 6.47339 8.46582L6.72674 8.46389L6.80688 8.22354C6.81718 8.19241 6.86123 8.19241 6.87161 8.22354Z" fill="#F5F5F5"/>
<path d="M6.87161 9.48114L6.95175 9.72149L7.2051 9.72342C7.23791 9.72371 7.25149 9.76555 7.22512 9.78503L7.02131 9.93556L7.09776 10.1771C7.10769 10.2084 7.07205 10.2343 7.04535 10.2152L6.83924 10.0678L6.63314 10.2152C6.60644 10.2342 6.57088 10.2084 6.58072 10.1771L6.65718 9.93556L6.45337 9.78503C6.427 9.7655 6.44058 9.72371 6.47339 9.72342L6.72674 9.72149L6.80688 9.48114C6.81718 9.44997 6.86123 9.44997 6.87161 9.48114Z" fill="#F5F5F5"/>
<path d="M7.84817 5.06824L7.92832 5.30859L8.18167 5.31052C8.21449 5.3108 8.22806 5.35264 8.20169 5.37212L7.99788 5.52265L8.07434 5.76419C8.08426 5.79544 8.04862 5.82137 8.02192 5.80225L7.81581 5.65493L7.60971 5.80225C7.58301 5.82133 7.54745 5.79544 7.55729 5.76419L7.63374 5.52265L7.42993 5.37212C7.40356 5.3526 7.41714 5.3108 7.44995 5.31052L7.70331 5.30859L7.78345 5.06824C7.79379 5.03715 7.83784 5.03715 7.84817 5.06824Z" fill="#F5F5F5"/>
<path d="M7.84817 6.32559L7.92832 6.56594L8.18167 6.56787C8.21449 6.56816 8.22806 6.60999 8.20169 6.62948L7.99788 6.78L8.07434 7.02154C8.08426 7.05279 8.04862 7.07871 8.02192 7.0596L7.81581 6.91227L7.60971 7.0596C7.58301 7.07867 7.54745 7.05283 7.55729 7.02154L7.63374 6.78L7.42993 6.62948C7.40356 6.60995 7.41714 6.56816 7.44995 6.56787L7.70331 6.56594L7.78345 6.32559C7.79379 6.29446 7.83784 6.29446 7.84817 6.32559Z" fill="#F5F5F5"/>
<path d="M7.84817 7.58267L7.92832 7.82302L8.18167 7.82495C8.21449 7.82524 8.22806 7.86708 8.20169 7.88656L7.99788 8.03709L8.07434 8.27863C8.08426 8.30988 8.04862 8.3358 8.02192 8.31669L7.81581 8.16936L7.60971 8.31669C7.58301 8.33576 7.54745 8.30988 7.55729 8.27863L7.63374 8.03709L7.42993 7.88656C7.40356 7.86703 7.41714 7.82524 7.44995 7.82495L7.70331 7.82302L7.78345 7.58267C7.79379 7.55154 7.83784 7.55154 7.84817 7.58267Z" fill="#F5F5F5"/>
<path d="M7.84817 8.84021L7.92832 9.08056L8.18167 9.08249C8.21449 9.08278 8.22806 9.12461 8.20169 9.1441L7.99788 9.29462L8.07434 9.53616C8.08426 9.56742 8.04862 9.59334 8.02192 9.57423L7.81581 9.4269L7.60971 9.57423C7.58301 9.5933 7.54745 9.56742 7.55729 9.53616L7.63374 9.29462L7.42993 9.1441C7.40356 9.12457 7.41714 9.08278 7.44995 9.08249L7.70331 9.08056L7.78345 8.84021C7.79379 8.80912 7.83784 8.80912 7.84817 8.84021Z" fill="#F5F5F5"/>
<path d="M8.82279 4.45181L8.90293 4.69216L9.15629 4.69409C9.1891 4.69438 9.20268 4.73622 9.1763 4.7557L8.97249 4.90622L9.04895 5.14776C9.05887 5.17902 9.02323 5.20494 8.99653 5.18583L8.79042 5.0385L8.58432 5.18583C8.55762 5.2049 8.52206 5.17902 8.5319 5.14776L8.60835 4.90622L8.40454 4.7557C8.37817 4.73617 8.39175 4.69438 8.42456 4.69409L8.67792 4.69216L8.75806 4.45181C8.7684 4.42068 8.81237 4.42068 8.82279 4.45181Z" fill="#F5F5F5"/>
<path d="M8.82279 5.70911L8.90293 5.94946L9.15629 5.95139C9.1891 5.95167 9.20268 5.99351 9.1763 6.01299L8.97249 6.16352L9.04895 6.40506C9.05887 6.43631 9.02323 6.46224 8.99653 6.44312L8.79042 6.29579L8.58432 6.44312C8.55762 6.46219 8.52206 6.43631 8.5319 6.40506L8.60835 6.16352L8.40454 6.01299C8.37817 5.99347 8.39175 5.95167 8.42456 5.95139L8.67792 5.94946L8.75806 5.70911C8.7684 5.67802 8.81237 5.67802 8.82279 5.70911Z" fill="#F5F5F5"/>
<path d="M8.82279 6.96668L8.90293 7.20703L9.15629 7.20896C9.1891 7.20925 9.20268 7.25108 9.1763 7.27057L8.97249 7.42109L9.04895 7.66264C9.05887 7.69389 9.02323 7.71981 8.99653 7.7007L8.79042 7.55337L8.58432 7.7007C8.55762 7.71977 8.52206 7.69389 8.5319 7.66264L8.60835 7.42109L8.40454 7.27057C8.37817 7.25104 8.39175 7.20925 8.42456 7.20896L8.67792 7.20703L8.75806 6.96668C8.7684 6.93559 8.81237 6.93559 8.82279 6.96668Z" fill="#F5F5F5"/>
<path d="M8.82279 8.22354L8.90293 8.46389L9.15629 8.46582C9.1891 8.46611 9.20268 8.50795 9.1763 8.52743L8.97249 8.67795L9.04895 8.91949C9.05887 8.95075 9.02323 8.97667 8.99653 8.95756L8.79042 8.81023L8.58432 8.95756C8.55762 8.97663 8.52206 8.95075 8.5319 8.91949L8.60835 8.67795L8.40454 8.52743C8.37817 8.5079 8.39175 8.46611 8.42456 8.46582L8.67792 8.46389L8.75806 8.22354C8.7684 8.19241 8.81237 8.19241 8.82279 8.22354Z" fill="#F5F5F5"/>
<path d="M8.82279 9.48114L8.90293 9.72149L9.15629 9.72342C9.1891 9.72371 9.20268 9.76555 9.1763 9.78503L8.97249 9.93556L9.04895 10.1771C9.05887 10.2084 9.02323 10.2343 8.99653 10.2152L8.79042 10.0678L8.58432 10.2152C8.55762 10.2342 8.52206 10.2084 8.5319 10.1771L8.60835 9.93556L8.40454 9.78503C8.37817 9.7655 8.39175 9.72371 8.42456 9.72342L8.67792 9.72149L8.75806 9.48114C8.7684 9.44997 8.81237 9.44997 8.82279 9.48114Z" fill="#F5F5F5"/>
</svg>
