<svg width="21" height="21" viewBox="0 0 21 21" fill="none" xmlns="http://www.w3.org/2000/svg">
<g clip-path="url(#clip0_882_21507)">
<path d="M20.6845 13.0401C19.2821 18.6651 13.585 22.0884 7.95932 20.6857C2.33598 19.2833 -1.08733 13.5858 0.315706 7.9611C1.71744 2.33545 7.41462 -1.08818 13.0386 0.314203C18.6639 1.71661 22.0869 7.41477 20.6845 13.0401Z" fill="#F7931A"/>
<path d="M7.04634 12.2683C6.98925 12.4101 6.84455 12.6227 6.51838 12.542C6.52989 12.5587 5.68104 12.333 5.68104 12.333L5.10913 13.6517L6.60829 14.0255C6.8872 14.0953 7.16054 14.1685 7.42959 14.2374L6.95281 16.1517L8.10354 16.4388L8.57571 14.5449C8.89007 14.6302 9.1952 14.7089 9.49379 14.7831L9.02326 16.6681L10.1753 16.9552L10.6521 15.0446C12.6166 15.4163 14.0937 15.2664 14.7155 13.4896C15.2166 12.059 14.6906 11.2338 13.657 10.6956C14.4097 10.5221 14.9767 10.0269 15.128 9.00418C15.337 7.60704 14.2732 6.85597 12.8186 6.35492L13.2905 4.46229L12.1384 4.17519L11.6791 6.01792C11.3762 5.94245 11.0651 5.87124 10.7561 5.80069L11.2187 3.9458L10.0673 3.65869L9.59516 5.55064C9.34446 5.49355 9.0984 5.43709 8.85951 5.37771L8.86081 5.3718L7.27204 4.9751L6.96555 6.20556C6.96555 6.20556 7.82032 6.40145 7.80227 6.41359C8.26887 6.53007 8.35319 6.83882 8.3391 7.08362L7.04634 12.2683ZM12.4958 12.6952C12.1398 14.1258 9.73103 13.3524 8.95009 13.1585L9.58272 10.6225C10.3636 10.8174 12.8679 11.2032 12.4958 12.6952ZM12.8521 8.98352C12.5273 10.2849 10.5224 9.6237 9.87211 9.4616L10.4457 7.16145C11.096 7.32354 13.1904 7.62607 12.8521 8.98352Z" fill="white"/>
</g>
<defs>
<clipPath id="clip0_882_21507">
<rect width="21" height="21" fill="white"/>
</clipPath>
</defs>
</svg>
