<svg width="23" height="23" viewBox="0 0 23 23" fill="none" xmlns="http://www.w3.org/2000/svg">
<path d="M17.5374 5.47208C17.1637 5.09833 16.5599 5.09833 16.1862 5.47208L11.4999 10.1487L6.81369 5.4625C6.43994 5.08875 5.83619 5.08875 5.46244 5.4625C5.08869 5.83625 5.08869 6.44 5.46244 6.81375L10.1487 11.5L5.46244 16.1862C5.08869 16.56 5.08869 17.1637 5.46244 17.5375C5.83619 17.9112 6.43994 17.9112 6.81369 17.5375L11.4999 12.8512L16.1862 17.5375C16.5599 17.9112 17.1637 17.9112 17.5374 17.5375C17.9112 17.1637 17.9112 16.56 17.5374 16.1862L12.8512 11.5L17.5374 6.81375C17.9016 6.44958 17.9016 5.83625 17.5374 5.47208Z" fill="#263E33"/>
</svg>
