<svg width="12" height="12" viewBox="0 0 12 12" fill="none" xmlns="http://www.w3.org/2000/svg">
<g clip-path="url(#clip0_998_893)">
<path d="M6.99809 5.99968L11.793 10.7946C12.069 11.0706 12.069 11.5167 11.793 11.7927C11.517 12.0687 11.0709 12.0687 10.7949 11.7927L6.00001 6.99776L1.20507 11.7927C0.929082 12.0687 0.482986 12.0687 0.206994 11.7927C-0.068998 11.5167 -0.068998 11.0706 0.206994 10.7946L5.00191 5.99968L0.206994 1.20476C-0.068998 0.92877 -0.068998 0.482674 0.206994 0.206682C0.344638 0.0690374 0.525336 -0.000123978 0.706034 -0.000123978C0.886732 -0.000123978 1.06743 0.0690613 1.20507 0.206682L5.99999 5.0016L10.7949 0.206682C10.9325 0.0690374 11.1132 -0.000123978 11.2939 -0.000123978C11.4746 -0.000123978 11.6553 0.0690613 11.793 0.206682C12.069 0.482674 12.069 0.92877 11.793 1.20476L6.99809 5.99968Z" fill="#3A4B5A"/>
</g>
<defs>
<clipPath id="clip0_998_893">
<rect width="12" height="12" fill="white" transform="matrix(1 0 0 -1 0 12)"/>
</clipPath>
</defs>
</svg>
