<svg width="30" height="30" viewBox="0 0 30 30" fill="none" xmlns="http://www.w3.org/2000/svg">
<path d="M12.437 22.8658L8.90201 26.4008C7.43645 27.8664 5.0631 27.8664 3.59877 26.4011C2.13415 24.9365 2.13415 22.5629 3.59848 21.0986L10.6698 14.0273C12.1341 12.5629 14.5077 12.5629 15.972 14.0273C16.4602 14.5154 17.2517 14.5154 17.7398 14.0273C18.228 13.5391 18.228 12.7476 17.7398 12.2595C15.2991 9.81882 11.3427 9.81882 8.90201 12.2595L1.83075 19.3307C-0.609925 21.7714 -0.609925 25.7279 1.83075 28.1686C4.27114 30.6105 8.22788 30.6105 10.6698 28.1686L14.2049 24.6335C14.693 24.1454 14.693 23.3539 14.2049 22.8657C13.7167 22.3776 12.9252 22.3776 12.437 22.8658Z" fill="#3A4B5A" fill-opacity="0.7"/>
<path d="M28.1692 1.83048C25.7285 -0.6102 21.7708 -0.6102 19.3301 1.83048L15.0888 6.07175C14.6007 6.5599 14.6007 7.35139 15.0888 7.83954C15.577 8.32768 16.3685 8.32768 16.8566 7.83954L21.0979 3.59826C22.5622 2.13388 24.937 2.13388 26.4014 3.59826C27.8657 5.06259 27.8657 7.43618 26.4014 8.9005L18.6239 16.6781C17.1595 18.1425 14.786 18.1425 13.3216 16.6781C12.8335 16.19 12.042 16.19 11.5539 16.6781C11.0657 17.1663 11.0657 17.9577 11.5539 18.4459C13.9945 20.8866 17.951 20.8866 20.3917 18.4459L28.1692 10.6683C30.6099 8.22766 30.6099 4.27116 28.1692 1.83048Z" fill="#3A4B5A" fill-opacity="0.7"/>
</svg>
