<svg width="21" height="21" viewBox="0 0 21 21" fill="none" xmlns="http://www.w3.org/2000/svg">
<path d="M21 10.5C21 16.299 16.299 21 10.5 21C6.98443 21 3.87216 19.272 1.9667 16.6192C1.71942 16.2755 1.49268 15.9159 1.28826 15.5426C0.466717 14.046 0 12.3274 0 10.5C0 4.70101 4.70101 0 10.5 0C14.4167 0 17.8324 2.14458 19.6371 5.3233C19.8746 5.74071 20.0837 6.17613 20.2628 6.62702C20.7386 7.8257 21 9.13242 21 10.5Z" fill="#1273BF"/>
<path d="M8.59876 9.35889H1.44613L0.600098 12.0643H7.75277L8.59876 9.35889Z" fill="#F0EFEB"/>
<path d="M20.1759 7.4952C19.5665 9.65049 18.9378 11.8152 18.0918 13.8839C17.3756 15.6368 15.9082 16.6105 13.9394 16.6156C9.94849 16.6268 5.95763 16.6195 1.96677 16.6191C1.71949 16.2754 1.49275 15.9158 1.28833 15.5425C1.44218 15.0608 1.60505 14.5512 1.72162 14.1865L1.89991 13.6293H2.4129C5.82306 13.6246 9.23318 13.6259 12.6433 13.6259C14.0293 13.6259 14.0302 13.6263 14.4498 12.3175C14.8843 10.9619 15.2957 9.59861 15.7599 8.2533C15.9206 7.78785 15.8259 7.70988 15.3596 7.71201C11.7339 7.72957 3.79422 7.72789 3.79422 7.72789L4.7375 4.77804C4.7375 4.77804 13.8815 4.77033 18.2323 4.78403C18.7904 4.78575 19.2785 4.98804 19.6372 5.32318C19.9891 5.65147 20.2162 6.10748 20.2629 6.6269C20.2873 6.90163 20.2612 7.19435 20.1759 7.4952Z" fill="#F0EFEB"/>
<path d="M3.79004 7.74062L3.7941 7.72803H3.79004V7.74062Z" fill="#F0EFEB"/>
</svg>
