<svg width="21" height="21" viewBox="0 0 21 21" fill="none" xmlns="http://www.w3.org/2000/svg">
<g clip-path="url(#clip0_719_1209)">
<path d="M8.51037 12.3709C9.0103 12.7042 9.591 12.8804 10.1897 12.8804C10.7884 12.8804 11.3691 12.7042 11.869 12.3709L20.1033 6.88128C20.149 6.85082 20.1935 6.81907 20.2371 6.78642V15.7818C20.2371 16.8132 19.4001 17.6317 18.3872 17.6317H1.99227C0.96093 17.6317 0.142426 16.7947 0.142426 15.7818V6.78638C0.186108 6.81911 0.230692 6.85094 0.276493 6.88143L8.51037 12.3709Z" fill="#3A4B5A"/>
<path d="M19.4501 5.90156L11.2159 11.3913C10.9042 11.5991 10.547 11.703 10.1898 11.703C9.83249 11.703 9.47522 11.599 9.16352 11.3913L0.929296 5.90156C0.436544 5.57326 0.142385 5.02379 0.142385 4.43076C0.142385 3.41108 0.971958 2.58154 1.99161 2.58154H18.3878C19.4075 2.58158 20.2371 3.41112 20.2371 4.43174C20.2371 5.02379 19.9429 5.57326 19.4501 5.90156Z" fill="#3A4B5A"/>
</g>
<defs>
<clipPath id="clip0_719_1209">
<rect width="20.0947" height="20.0947" fill="white" transform="matrix(-1 0 0 1 20.2371 0.059082)"/>
</clipPath>
</defs>
</svg>
