<svg width="21" height="21" viewBox="0 0 21 21" fill="none" xmlns="http://www.w3.org/2000/svg">
<path d="M10.5 21C16.299 21 21 16.299 21 10.5C21 4.70101 16.299 0 10.5 0C4.70101 0 0 4.70101 0 10.5C0 16.299 4.70101 21 10.5 21Z" fill="#2488FF"/>
<path d="M10.5 19.5517C15.4991 19.5517 19.5517 15.4991 19.5517 10.5C19.5517 5.50084 15.4991 1.44824 10.5 1.44824C5.50084 1.44824 1.44824 5.50084 1.44824 10.5C1.44824 15.4991 5.50084 19.5517 10.5 19.5517Z" fill="#006DF0"/>
<path d="M10.5525 0C10.6698 0.478357 10.7532 0.964365 10.8023 1.45443C12.474 1.51014 14.0975 2.02794 15.4928 2.95036C16.888 3.87278 18.0004 5.16374 18.7065 6.68C19.4125 8.19625 19.6847 9.87848 19.4927 11.54C19.3008 13.2016 18.6522 14.7774 17.619 16.0927C16.5857 17.408 15.2083 18.4113 13.6395 18.9913C12.0707 19.5712 10.3718 19.7052 8.73149 19.3783C7.09117 19.0513 5.57351 18.2763 4.34692 17.1392C3.12034 16.002 2.23281 14.5473 1.78283 12.9364C1.31197 13.0008 0.837318 13.0336 0.36207 13.0345C0.344329 13.0345 0.325863 13.0345 0.30957 13.0345C0.784037 14.9419 1.78437 16.6779 3.19674 18.0448C4.60911 19.4118 6.37681 20.3548 8.29872 20.7667C10.2206 21.1786 12.2195 21.0428 14.0681 20.3747C15.9166 19.7066 17.5405 18.5331 18.7549 16.9876C19.9694 15.4421 20.7257 13.5868 20.9378 11.6328C21.1498 9.67869 20.8092 7.70433 19.9545 5.93432C19.0999 4.1643 17.7656 2.66972 16.1034 1.62061C14.4413 0.571503 12.518 0.0100039 10.5525 0Z" fill="#006DF0"/>
<path d="M10.4999 19.5519C12.8634 19.5354 15.1267 18.5951 16.806 16.932C18.4854 15.2688 19.4477 13.0148 19.4872 10.6516C19.5266 8.28839 18.6402 6.00347 17.0173 4.28517C15.3944 2.56687 13.1638 1.5515 10.8022 1.45605C10.8406 1.81433 10.8606 2.17434 10.862 2.53466C10.8616 5.07305 9.94166 7.52537 8.27245 9.43775C6.60324 11.3501 4.29776 12.5931 1.78271 12.9365C2.31455 14.8395 3.45445 16.5162 5.02842 17.7107C6.6024 18.9051 8.52399 19.5518 10.4999 19.5519Z" fill="#005ECE"/>
<path d="M15.196 11.9482L10.5 13.7477L5.80396 11.9482L10.5 17.3684L15.196 11.9482Z" fill="#BDDBFF"/>
<path d="M14.5225 10.7571L10.4999 3.63159L6.47729 10.7571L10.4999 12.2995L14.5225 10.7571Z" fill="#BDDBFF"/>
</svg>
