<svg width="86" height="22" viewBox="0 0 86 22" fill="none" xmlns="http://www.w3.org/2000/svg">
<path d="M1 13.3636L7.89894 18.9219C8.99777 19.8071 10.6432 19.3068 11.0631 17.9596L11.4276 16.7902C11.9572 15.0912 14.2756 14.8781 15.1059 16.4522L15.9856 18.1199C16.812 19.6864 19.1166 19.485 19.6586 17.7988L21.1169 13.2623C21.5956 11.7732 23.5214 11.3852 24.5394 12.5728L27.8738 16.4626C28.7263 17.457 30.2887 17.3773 31.0354 16.3012L37.7258 6.65996C38.7968 5.11668 41.212 5.76756 41.3625 7.63998L42.2857 19.1275C42.452 21.1964 45.2704 21.6739 46.1088 19.7752L50.9938 8.71304C51.7421 7.01856 54.2737 7.55265 54.2737 9.405V9.405C54.2737 11.202 56.688 11.7865 57.5099 10.1885L61.6223 2.19296C62.4938 0.498527 65.0164 0.867087 65.3667 2.74003L67.8079 15.7922C68.0538 17.1073 69.4968 17.8148 70.6871 17.2038L85 9.85714" stroke="#FC5555" stroke-width="2"/>
</svg>
