<svg width="16" height="17" viewBox="0 0 16 17" fill="none" xmlns="http://www.w3.org/2000/svg">
<g clip-path="url(#clip0_882_3786)">
<path d="M0.666667 3.83356H2.49067C2.63376 4.36004 2.94612 4.82482 3.37955 5.15618C3.81299 5.48754 4.34341 5.66706 4.889 5.66706C5.43459 5.66706 5.96501 5.48754 6.39845 5.15618C6.83188 4.82482 7.14424 4.36004 7.28733 3.83356H15.3333C15.5101 3.83356 15.6797 3.76332 15.8047 3.63829C15.9298 3.51327 16 3.3437 16 3.16689C16 2.99008 15.9298 2.82051 15.8047 2.69549C15.6797 2.57046 15.5101 2.50022 15.3333 2.50022H7.28733C7.14424 1.97374 6.83188 1.50896 6.39845 1.1776C5.96501 0.846245 5.43459 0.666718 4.889 0.666718C4.34341 0.666718 3.81299 0.846245 3.37955 1.1776C2.94612 1.50896 2.63376 1.97374 2.49067 2.50022H0.666667C0.489856 2.50022 0.320286 2.57046 0.195262 2.69549C0.0702379 2.82051 0 2.99008 0 3.16689C0 3.3437 0.0702379 3.51327 0.195262 3.63829C0.320286 3.76332 0.489856 3.83356 0.666667 3.83356V3.83356ZM4.88867 2.00022C5.11941 2.00022 5.34497 2.06865 5.53683 2.19684C5.72869 2.32504 5.87822 2.50725 5.96653 2.72043C6.05483 2.93361 6.07793 3.16818 6.03292 3.3945C5.9879 3.62081 5.87679 3.82869 5.71362 3.99185C5.55046 4.15501 5.34258 4.26612 5.11627 4.31114C4.88996 4.35616 4.65538 4.33305 4.4422 4.24475C4.22902 4.15645 4.04681 4.00691 3.91862 3.81506C3.79042 3.6232 3.722 3.39764 3.722 3.16689C3.72235 2.85758 3.84538 2.56104 4.0641 2.34232C4.28281 2.12361 4.57936 2.00058 4.88867 2.00022V2.00022Z" fill="#3A4B5A"/>
<path d="M15.3333 7.99941H13.5093C13.3665 7.4728 13.0542 7.00785 12.6208 6.67636C12.1874 6.34486 11.657 6.16525 11.1113 6.16525C10.5657 6.16525 10.0352 6.34486 9.60182 6.67636C9.16842 7.00785 8.85619 7.4728 8.71333 7.99941H0.666667C0.489856 7.99941 0.320286 8.06964 0.195262 8.19467C0.0702379 8.31969 0 8.48926 0 8.66607C0 8.84288 0.0702379 9.01245 0.195262 9.13747C0.320286 9.2625 0.489856 9.33274 0.666667 9.33274H8.71333C8.85619 9.85935 9.16842 10.3243 9.60182 10.6558C10.0352 10.9873 10.5657 11.1669 11.1113 11.1669C11.657 11.1669 12.1874 10.9873 12.6208 10.6558C13.0542 10.3243 13.3665 9.85935 13.5093 9.33274H15.3333C15.5101 9.33274 15.6797 9.2625 15.8047 9.13747C15.9298 9.01245 16 8.84288 16 8.66607C16 8.48926 15.9298 8.31969 15.8047 8.19467C15.6797 8.06964 15.5101 7.99941 15.3333 7.99941ZM11.1113 9.83274C10.8806 9.83274 10.655 9.76431 10.4632 9.63612C10.2713 9.50792 10.1218 9.32571 10.0335 9.11253C9.94517 8.89935 9.92207 8.66478 9.96708 8.43847C10.0121 8.21216 10.1232 8.00428 10.2864 7.84111C10.4495 7.67795 10.6574 7.56684 10.8837 7.52182C11.11 7.47681 11.3446 7.49991 11.5578 7.58821C11.771 7.67652 11.9532 7.82605 12.0814 8.01791C12.2096 8.20976 12.278 8.43533 12.278 8.66607C12.2776 8.97538 12.1546 9.27192 11.9359 9.49064C11.7172 9.70935 11.4206 9.83238 11.1113 9.83274V9.83274Z" fill="#3A4B5A"/>
<path d="M15.3333 13.5002H7.28733C7.14424 12.9737 6.83188 12.509 6.39845 12.1776C5.96501 11.8462 5.43459 11.6667 4.889 11.6667C4.34341 11.6667 3.81299 11.8462 3.37955 12.1776C2.94612 12.509 2.63376 12.9737 2.49067 13.5002H0.666667C0.489856 13.5002 0.320286 13.5705 0.195262 13.6955C0.0702379 13.8205 0 13.9901 0 14.1669C0 14.3437 0.0702379 14.5133 0.195262 14.6383C0.320286 14.7633 0.489856 14.8335 0.666667 14.8335H2.49067C2.63376 15.36 2.94612 15.8248 3.37955 16.1562C3.81299 16.4875 4.34341 16.667 4.889 16.667C5.43459 16.667 5.96501 16.4875 6.39845 16.1562C6.83188 15.8248 7.14424 15.36 7.28733 14.8335H15.3333C15.5101 14.8335 15.6797 14.7633 15.8047 14.6383C15.9298 14.5133 16 14.3437 16 14.1669C16 13.9901 15.9298 13.8205 15.8047 13.6955C15.6797 13.5705 15.5101 13.5002 15.3333 13.5002ZM4.88867 15.3335C4.65792 15.3335 4.43236 15.2651 4.2405 15.1369C4.04864 15.0087 3.89911 14.8265 3.81081 14.6133C3.72251 14.4002 3.6994 14.1656 3.74442 13.9393C3.78943 13.713 3.90055 13.5051 4.06371 13.3419C4.22687 13.1788 4.43475 13.0677 4.66106 13.0226C4.88737 12.9776 5.12195 13.0007 5.33513 13.089C5.54831 13.1773 5.73052 13.3269 5.85871 13.5187C5.98691 13.7106 6.05533 13.9361 6.05533 14.1669C6.0548 14.4761 5.93172 14.7726 5.71304 14.9913C5.49436 15.2099 5.19792 15.333 4.88867 15.3335V15.3335Z" fill="#3A4B5A"/>
</g>
<defs>
<clipPath id="clip0_882_3786">
<rect width="16" height="16" fill="white" transform="translate(0 0.666656)"/>
</clipPath>
</defs>
</svg>
