<svg width="21" height="21" viewBox="0 0 21 21" fill="none" xmlns="http://www.w3.org/2000/svg">
<path d="M10.5 21C16.299 21 21 16.299 21 10.5C21 4.70101 16.299 0 10.5 0C4.70101 0 0 4.70101 0 10.5C0 16.299 4.70101 21 10.5 21Z" fill="#3949AB"/>
<path d="M20.6492 13.2037C20.0879 15.3057 18.888 17.1817 17.2151 18.5727C15.5422 19.9637 13.4788 20.8012 11.3097 20.9695L7.05858 16.717L8.48851 14.4513L5.85522 11.818L9.89772 9.79948L12.1759 4.73047L20.6492 13.2037Z" fill="url(#paint0_linear_882_21512)"/>
<path d="M10.4115 10.9062L13.9953 10.1892L13.6775 8.5921L10.9144 9.14474L12.1744 4.73059L10.6104 4.28296L9.11832 9.50395L5.53589 10.2237L5.85503 11.8195L8.61819 11.2668L7.05839 16.7172H15.4639V15.0897H9.21642L10.4115 10.9062Z" fill="white"/>
<defs>
<linearGradient id="paint0_linear_882_21512" x1="9.27463" y1="10.3797" x2="17.0681" y2="18.1732" gradientUnits="userSpaceOnUse">
<stop stop-color="#1A237E"/>
<stop offset="1" stop-color="#1A237E" stop-opacity="0"/>
</linearGradient>
</defs>
</svg>
