<svg width="17" height="23" viewBox="0 0 17 23" fill="none" xmlns="http://www.w3.org/2000/svg">
<path d="M8.51486 0.448486C6.37753 0.448486 4.32774 1.29754 2.81642 2.80886C1.3051 4.32017 0.456055 6.36996 0.456055 8.50729C0.456055 12.7638 7.63571 21.7677 7.94341 22.156C8.01206 22.2415 8.09905 22.3106 8.19795 22.358C8.29686 22.4055 8.40516 22.4301 8.51486 22.4301C8.62456 22.4301 8.73285 22.4055 8.83176 22.358C8.93066 22.3106 9.01765 22.2415 9.0863 22.156C9.394 21.7677 16.5737 12.7638 16.5737 8.50729C16.5737 6.36996 15.7246 4.32017 14.2133 2.80886C12.702 1.29754 10.6522 0.448486 8.51486 0.448486ZM8.51486 10.7051C7.93526 10.7051 7.36869 10.5333 6.88677 10.2113C6.40486 9.88927 6.02925 9.43159 5.80745 8.89612C5.58565 8.36064 5.52762 7.77142 5.64069 7.20296C5.75376 6.63451 6.03286 6.11235 6.4427 5.70251C6.85253 5.29268 7.37469 5.01358 7.94315 4.90051C8.51161 4.78743 9.10083 4.84547 9.6363 5.06727C10.1718 5.28907 10.6295 5.66467 10.9515 6.14659C11.2735 6.6285 11.4453 7.19508 11.4453 7.77467C11.4453 8.55188 11.1366 9.29726 10.587 9.84683C10.0374 10.3964 9.29207 10.7051 8.51486 10.7051Z" fill="#3A4B5A"/>
</svg>
