<svg width="30" height="30" viewBox="0 0 30 30" fill="none" xmlns="http://www.w3.org/2000/svg">
<g clip-path="url(#clip0_987_234)">
<path d="M15 0.00291701C6.89406 -0.156911 0.186544 6.27113 0.00146484 14.3765C0.0226151 18.5024 1.84957 22.4123 5.00096 25.0754V29.375C5.00096 29.7202 5.28078 30 5.62592 30C5.74303 30 5.85781 29.9671 5.95712 29.905L9.44053 27.729C11.2153 28.4078 13.0999 28.7539 15 28.7501C23.106 28.91 29.8135 22.4819 29.9985 14.3766C29.8135 6.27113 23.106 -0.156911 15 0.00291701Z" fill="#2196F3"/>
<path d="M24.8739 10.2519C24.688 10.0027 24.347 9.92808 24.074 10.0769L17.5747 13.6203L13.5313 10.1531C13.2834 9.94056 12.9136 9.95468 12.6827 10.1856L5.18342 17.6849C4.94011 17.9297 4.94128 18.3254 5.18612 18.5687C5.38186 18.7633 5.68201 18.8064 5.92462 18.6748L12.424 15.1314L16.4711 18.5998C16.719 18.8124 17.0888 18.7983 17.3197 18.5673L24.819 11.068C25.0375 10.8474 25.0609 10.4998 24.8739 10.2519Z" fill="#FAFAFA"/>
</g>
<defs>
<clipPath id="clip0_987_234">
<rect width="30" height="30" fill="white"/>
</clipPath>
</defs>
</svg>
