<svg width="32" height="32" viewBox="0 0 32 32" fill="none" xmlns="http://www.w3.org/2000/svg">
<g clip-path="url(#clip0_829_8371)">
<path d="M18.8 9.25H13.2C11.9866 9.25 11 9.8256 11 10.5334V11.4666C11 12.1744 11.9868 12.75 13.2 12.75H18.8C20.0134 12.75 21 12.1744 21 11.4666V10.5334C21 9.8256 20.0132 9.25 18.8 9.25Z" fill="white"/>
<path d="M20.8985 7.66006C20.2332 7.38334 19.5189 7.24388 18.7985 7.25006H13.1985C12.478 7.24388 11.7637 7.38334 11.0985 7.66006C10.2674 5.76309 9.89076 3.69828 9.99847 1.63006C10.017 1.37746 10.1304 1.14121 10.3159 0.968724C10.5014 0.796235 10.7452 0.700262 10.9985 0.700059C11.5833 0.689204 12.1613 0.826827 12.6785 1.10006C12.9277 1.24227 13.2118 1.31157 13.4985 1.30006C13.7819 1.31037 14.0625 1.24108 14.3085 1.10006C14.8312 0.837044 15.4083 0.700055 15.9935 0.700055C16.5787 0.700055 17.1557 0.837044 17.6785 1.10006C17.9245 1.24108 18.2051 1.31037 18.4885 1.30006C18.7752 1.31157 19.0593 1.24227 19.3085 1.10006C19.8256 0.826827 20.4037 0.689204 20.9885 0.700059C21.2418 0.700262 21.4856 0.796235 21.6711 0.968724C21.8565 1.14121 21.9699 1.37746 21.9885 1.63006C22.0965 3.69731 21.7233 5.76143 20.8985 7.66006Z" fill="white"/>
<path d="M27.9993 23.2501C27.6393 19.2101 24.1893 15.7401 21.7993 13.8101C20.9311 14.4472 19.8758 14.7779 18.7993 14.7501H13.1993C12.1227 14.7779 11.0675 14.4472 10.1993 13.8101C7.80928 15.7401 4.35928 19.2101 3.99928 23.2501C3.74928 26.1601 4.30928 28.4001 5.67928 29.8901C6.43129 30.6293 7.33217 31.1998 8.3219 31.5636C9.31164 31.9274 10.3675 32.0762 11.4193 32.0001H20.5793C21.631 32.0762 22.6869 31.9274 23.6766 31.5636C24.6664 31.1998 25.5673 30.6293 26.3193 29.8901C27.6893 28.4001 28.2493 26.1601 27.9993 23.2501ZM15.4993 22.0001H16.4993C17.1187 22.0002 17.7161 22.2303 18.1756 22.6457C18.635 23.0612 18.9239 23.6325 18.9862 24.2488C19.0484 24.8651 18.8797 25.4826 18.5126 25.9816C18.1455 26.4805 17.6062 26.8255 16.9993 26.9495V27.0001C16.9993 27.2653 16.8939 27.5196 16.7064 27.7072C16.5188 27.8947 16.2645 28.0001 15.9993 28.0001C15.7341 28.0001 15.4797 27.8947 15.2922 27.7072C15.1046 27.5196 14.9993 27.2653 14.9993 27.0001H13.9993C13.7341 27.0001 13.4797 26.8947 13.2922 26.7072C13.1046 26.5196 12.9993 26.2653 12.9993 26.0001C12.9993 25.7348 13.1046 25.4805 13.2922 25.293C13.4797 25.1054 13.7341 25.0001 13.9993 25.0001H16.4993C16.6319 25.0001 16.7591 24.9474 16.8528 24.8536C16.9466 24.7598 16.9993 24.6327 16.9993 24.5001C16.9993 24.3675 16.9466 24.2403 16.8528 24.1465C16.7591 24.0527 16.6319 24.0001 16.4993 24.0001H15.4993C14.8798 24 14.2824 23.7699 13.823 23.3544C13.3635 22.9389 13.0746 22.3677 13.0124 21.7513C12.9501 21.135 13.1189 20.5175 13.486 20.0185C13.8531 19.5196 14.3923 19.1747 14.9993 19.0507V19.0001C14.9993 18.7348 15.1046 18.4805 15.2922 18.293C15.4797 18.1054 15.7341 18.0001 15.9993 18.0001C16.2645 18.0001 16.5188 18.1054 16.7064 18.293C16.8939 18.4805 16.9993 18.7348 16.9993 19.0001H17.9993C18.2645 19.0001 18.5188 19.1054 18.7064 19.293C18.8939 19.4805 18.9993 19.7348 18.9993 20.0001C18.9993 20.2653 18.8939 20.5196 18.7064 20.7072C18.5188 20.8947 18.2645 21.0001 17.9993 21.0001H15.4993C15.3667 21.0001 15.2395 21.0527 15.1457 21.1465C15.052 21.2403 14.9993 21.3675 14.9993 21.5001C14.9993 21.6327 15.052 21.7598 15.1457 21.8536C15.2395 21.9474 15.3667 22.0001 15.4993 22.0001Z" fill="white"/>
</g>
<defs>
<clipPath id="clip0_829_8371">
<rect width="32" height="32" fill="white"/>
</clipPath>
</defs>
</svg>
