<svg width="21" height="21" viewBox="0 0 21 21" fill="none" xmlns="http://www.w3.org/2000/svg">
<path d="M19.2753 13.9179C18.045 13.9179 16.837 13.7255 15.6923 13.3472C15.1314 13.1559 14.4418 13.3314 14.0995 13.683L11.84 15.3886C9.2197 13.9899 7.60564 12.3763 6.22602 9.77571L7.88147 7.57513C8.31157 7.14561 8.46584 6.51817 8.28101 5.92946C7.90109 4.77873 7.7081 3.57132 7.7081 2.34052C7.70815 1.45138 6.9848 0.728027 6.09571 0.728027H2.40541C1.51632 0.728027 0.792969 1.45138 0.792969 2.34047C0.792969 12.5317 9.08401 20.8227 19.2753 20.8227C20.1643 20.8227 20.8877 20.0993 20.8877 19.2103V15.5303C20.8876 14.6412 20.1643 13.9179 19.2753 13.9179Z" fill="#3A4B5A"/>
</svg>
