<svg width="19" height="19" viewBox="0 0 19 19" fill="none" xmlns="http://www.w3.org/2000/svg">
<path d="M16.8542 1.33115C16.8542 0.597198 16.257 0 15.5231 0H3.47568C2.74173 0 2.14453 0.597198 2.14453 1.33115V4.59677H16.8542V1.33115Z" fill="#263E33" fill-opacity="0.7"/>
<path d="M17.9755 5.82251H1.02489C0.628798 5.82251 0.306641 6.14467 0.306641 6.54076V13.6849C0.306641 14.081 0.628798 14.4032 1.02489 14.4032H3.67761V12.0569C3.67761 10.9847 4.54946 10.1128 5.62166 10.1128H13.3787C14.4509 10.1128 15.3228 10.9847 15.3228 12.0569V14.4032H17.9755C18.3716 14.4032 18.6937 14.081 18.6937 13.6849V6.54076C18.6937 6.14467 18.3716 5.82251 17.9755 5.82251ZM16.2421 8.58057H15.3228C14.9841 8.58057 14.7099 8.3063 14.7099 7.96767C14.7099 7.62904 14.9841 7.35477 15.3228 7.35477H16.2421C16.5807 7.35477 16.855 7.62904 16.855 7.96767C16.855 8.3063 16.5807 8.58057 16.2421 8.58057ZM13.3787 11.3386H5.62166C5.22557 11.3386 4.90341 11.6608 4.90341 12.0569V18.2817C4.90341 18.6778 5.22557 18.9999 5.62166 18.9999H13.3787C13.7748 18.9999 14.097 18.6778 14.097 18.2817V12.0569C14.097 11.6608 13.7748 11.3386 13.3787 11.3386ZM11.3389 17.1612H7.66147C7.32284 17.1612 7.04857 16.8869 7.04857 16.5483C7.04857 16.2097 7.32284 15.9354 7.66147 15.9354H11.3389C11.6775 15.9354 11.9518 16.2097 11.9518 16.5483C11.9518 16.8869 11.6775 17.1612 11.3389 17.1612ZM11.3389 14.4032H7.66147C7.32284 14.4032 7.04857 14.1289 7.04857 13.7903C7.04857 13.4516 7.32284 13.1773 7.66147 13.1773H11.3389C11.6775 13.1773 11.9518 13.4516 11.9518 13.7903C11.9518 14.1289 11.6775 14.4032 11.3389 14.4032Z" fill="#263E33" fill-opacity="0.7"/>
</svg>
