<svg xmlns="http://www.w3.org/2000/svg" width="15.608" height="15.488" viewBox="0 0 15.608 15.488">
  <g id="Group_1" data-name="Group 1" transform="translate(-652 -532)">
    <path id="Fill_1" data-name="Fill 1" d="M7.8,1.625A6.179,6.179,0,1,0,13.983,7.8,6.186,6.186,0,0,0,7.8,1.625m0,13.483a7.3,7.3,0,1,1,7.3-7.3,7.313,7.313,0,0,1-7.3,7.3" transform="translate(651.5 531.5)" fill="#3a4b5a" fill-rule="evenodd"/>
    <path id="Fill_4" data-name="Fill 4" d="M4.136,4.041a.563.563,0,0,1-.4-.164L1.1,1.242a.563.563,0,0,1,.8-.8L4.533,3.081a.563.563,0,0,1-.4.961Z" transform="translate(662.909 543.447)" fill="#3a4b5a" fill-rule="evenodd"/>
  </g>
</svg>
