<svg width="110" height="31" viewBox="0 0 110 31" fill="none" xmlns="http://www.w3.org/2000/svg">
<path d="M1 18.2727L10.5131 26.0222C11.6128 26.9181 13.2696 26.4163 13.6875 25.0608L14.8151 21.4034C15.3416 19.6956 17.6729 19.4831 18.4995 21.0675L20.8961 25.6611C21.7188 27.238 24.0364 27.037 24.5753 25.342L27.1772 17.1579C27.6534 15.6599 29.5922 15.2715 30.6087 16.4705L36.0258 22.8601C36.8785 23.8659 38.4542 23.7857 39.2004 22.6985L49.1233 8.24018C50.1897 6.68642 52.6167 7.33487 52.766 9.21344L54.2627 28.0443C54.4276 30.1186 57.2564 30.5932 58.0893 28.6863L65.662 11.3473C66.5294 9.3612 69.4948 9.98052 69.4948 12.1478V13.9817C69.4948 16.0847 72.324 16.7629 73.2774 14.8885L79.7011 2.26029C80.568 0.556156 83.1026 0.92325 83.4504 2.8033L87.0386 22.2019C87.283 23.5228 88.7342 24.2321 89.9266 23.6132L109 13.7143" stroke="#5B9279" stroke-width="2"/>
</svg>
