<svg width="30" height="34" viewBox="0 0 30 34" fill="none" xmlns="http://www.w3.org/2000/svg">
<path d="M18.3333 0H11.6667C5.23333 0 0 5.33806 0 11.9001V17.0002C0 21.6115 2.60417 25.7893 6.66667 27.757V33.4394C6.66667 33.9324 7.27083 34.1874 7.6125 33.8389L12.4542 28.9046H18.3333C24.7667 28.9046 30 23.5665 30 17.0002V11.9001C30 5.33806 24.7667 0 18.3333 0ZM22.7 22.3047L21.0125 23.9877C19.2375 25.7599 14.6042 23.7369 10.5208 19.4826C6.4375 15.2241 4.64583 10.4555 6.33333 8.68327L8.02083 7.00025C8.64167 6.37974 9.69583 6.39249 10.3917 7.02575L12.825 9.56302C13.6917 10.4683 13.325 11.9856 12.1792 12.3341C11.3875 12.5933 10.85 13.4816 11.1042 14.2891C11.525 16.1761 13.8708 18.5349 15.6208 19.0024C16.4083 19.1894 17.2917 18.7516 17.5667 17.9484C17.9292 16.7881 19.425 16.4438 20.2958 17.3534L22.725 19.8864C23.3333 20.5192 23.325 21.5949 22.7 22.3047ZM16.5167 8.07508C16.35 8.07508 16.1833 8.08358 16.0208 8.10483C15.7167 8.13883 15.4417 7.91358 15.4083 7.60333C15.375 7.29308 15.5958 7.01257 15.9 6.97857C16.1042 6.95307 16.3125 6.94457 16.5167 6.94457C19.5792 6.94457 22.0708 9.4861 22.0708 12.6099C22.0708 12.8181 22.0625 13.0306 22.0375 13.2389C22.0042 13.5449 21.725 13.7744 21.425 13.7404C21.125 13.7064 20.9 13.4216 20.9333 13.1156C20.95 12.9499 20.9625 12.7799 20.9625 12.6099C20.9625 10.1109 18.9667 8.07508 16.5167 8.07508ZM19.85 12.6099C19.85 12.9201 19.5958 13.1751 19.2917 13.1751C18.9917 13.1751 18.7375 12.9201 18.7375 12.6099C18.7375 11.3604 17.7417 10.3446 16.5167 10.3446C16.2083 10.3446 15.9583 10.0896 15.9583 9.7751C15.9583 9.46485 16.2083 9.20985 16.5167 9.20985C18.3542 9.20985 19.85 10.7356 19.85 12.6099ZM24.0875 14.4417C24.0167 14.7477 23.6958 14.9389 23.4 14.8582C23.1125 14.7774 22.9375 14.4714 23.0042 14.1781C23.125 13.6681 23.1833 13.1411 23.1833 12.6099C23.1833 8.86134 20.1917 5.80981 16.5167 5.80981C16.3458 5.80981 16.1708 5.81406 16 5.83106C15.6958 5.85231 15.4292 5.61856 15.4042 5.30831C15.3833 4.9938 15.6125 4.7218 15.9167 4.70055C16.1167 4.68355 16.3167 4.67505 16.5167 4.67505C20.8042 4.67505 24.2958 8.23659 24.2958 12.6099C24.2958 13.2261 24.225 13.8424 24.0875 14.4417Z" fill="#665CAC"/>
</svg>
