<svg width="30" height="30" viewBox="0 0 30 30" fill="none" xmlns="http://www.w3.org/2000/svg">
<path d="M15.0037 0H14.9963C6.72563 0 0 6.7275 0 15C0 18.2812 1.0575 21.3225 2.85562 23.7919L0.98625 29.3644L6.75187 27.5213C9.12375 29.0925 11.9531 30 15.0037 30C23.2744 30 30 23.2706 30 15C30 6.72938 23.2744 0 15.0037 0Z" fill="#4CAF50"/>
<path d="M23.7318 21.1819C23.3699 22.2038 21.9337 23.0513 20.788 23.2988C20.0043 23.4656 18.9805 23.5988 15.5343 22.17C11.1262 20.3438 8.28741 15.8644 8.06616 15.5738C7.85429 15.2831 6.28491 13.2019 6.28491 11.0494C6.28491 8.89688 7.37804 7.84875 7.81866 7.39875C8.18054 7.02938 8.77866 6.86063 9.35241 6.86063C9.53804 6.86063 9.70491 6.87 9.85491 6.8775C10.2955 6.89625 10.5168 6.9225 10.8074 7.61813C11.1693 8.49 12.0505 10.6425 12.1555 10.8638C12.2624 11.085 12.3693 11.385 12.2193 11.6756C12.0787 11.9756 11.9549 12.1088 11.7337 12.3638C11.5124 12.6188 11.3024 12.8138 11.0812 13.0875C10.8787 13.3256 10.6499 13.5806 10.9049 14.0213C11.1599 14.4525 12.0412 15.8906 13.3387 17.0456C15.013 18.5363 16.3705 19.0125 16.8562 19.215C17.218 19.365 17.6493 19.3294 17.9137 19.0481C18.2493 18.6863 18.6637 18.0863 19.0855 17.4956C19.3855 17.0719 19.7643 17.0194 20.1618 17.1694C20.5668 17.31 22.7099 18.3694 23.1505 18.5888C23.5912 18.81 23.8818 18.915 23.9887 19.1006C24.0937 19.2863 24.0937 20.1581 23.7318 21.1819Z" fill="#FAFAFA"/>
</svg>
